<svg version="1.1" xmlns="http://www.w3.org/2000/svg" viewBox="0 0 913.5010489493377 997.183080473196" width="913.5010489493377" height="997.183080473196" filter="invert(93%) hue-rotate(180deg)">
  <!-- svg-source:excalidraw -->
  
  <defs>
    <style class="style-fonts">
      
    </style>
    
  </defs>
  <g stroke-linecap="round"><g transform="translate(550.3048782385906 733.9258483695959) rotate(0 -94.45525387095756 -235.88596453784123)" fill-rule="evenodd"><path d="M1.76 -1.41 L147.8 -82.46 L146.6 -638.77 L-0.36 -722.71 L-1.69 -309.96 L-187.33 -308.27 L-188.84 -472.69 L-337.55 -390.49 L-337.99 167.33 L-188.72 253.37 L-188.54 -163.88 L0 -160.99 L-0.36 -1.84" stroke="none" stroke-width="0" fill="black" fill-rule="evenodd"></path><path d="M0 0 C35.13 -19.29, 69.07 -40.16, 146.41 -81.34 M0 0 C32.28 -16.99, 63.57 -34.07, 146.41 -81.34 M146.41 -81.34 C148.74 -286.87, 148.87 -490.82, 146.41 -637.16 M146.41 -81.34 C144.79 -221.59, 144.58 -361.51, 146.41 -637.16 M146.41 -637.16 C117.13 -655.67, 88.98 -671.76, 0 -723.93 M146.41 -637.16 C116 -656.17, 84.47 -674.14, 0 -723.93 M0 -723.93 C2.59 -558.13, 1.14 -391.32, 0 -309.09 M0 -723.93 C2.5 -582.18, 1.8 -439.72, 0 -309.09 M0 -309.09 C-39.43 -311.04, -82.39 -307.49, -187.08 -309.09 M0 -309.09 C-60.6 -310.15, -120.65 -309.34, -187.08 -309.09 M-187.08 -309.09 C-186.33 -368.27, -186.16 -425.18, -187.08 -471.77 M-187.08 -309.09 C-186.02 -350.5, -186.03 -393.12, -187.08 -471.77 M-187.08 -471.77 C-228.51 -449.69, -268.28 -425.35, -336.21 -390.43 M-187.08 -471.77 C-218.58 -454.52, -249.97 -437.6, -336.21 -390.43 M-336.21 -390.43 C-337.06 -257.51, -337.75 -123.58, -336.21 165.39 M-336.21 -390.43 C-335.86 -278.56, -336.17 -166.98, -336.21 165.39 M-336.21 165.39 C-297.47 190.09, -257.86 210.24, -187.08 252.15 M-336.21 165.39 C-285.2 194.26, -235.72 223.12, -187.08 252.15 M-187.08 252.15 C-187.75 129.2, -187.7 9.33, -187.08 -162.68 M-187.08 252.15 C-187.35 156.68, -186.91 61.56, -187.08 -162.68 M-187.08 -162.68 C-142.49 -161.8, -96.16 -162.59, 0 -162.68 M-187.08 -162.68 C-133.1 -164.01, -77.17 -164.07, 0 -162.68 M0 -162.68 C1.12 -109.15, 2.16 -56.67, 0 0 M0 -162.68 C-0.3 -100.47, 1.38 -38.61, 0 0 M0 0 C0 0, 0 0, 0 0 M0 0 C0 0, 0 0, 0 0" stroke="#000000" stroke-width="1" fill="none"></path></g></g><mask></mask><g stroke-linecap="round"><g transform="translate(767.6244081141961 135.82461386985096) rotate(0 -40.764780121817694 425.6792333016725)" fill-rule="evenodd"><path d="M-1.6 1.44 L-1.78 563.69 L-217.96 681.28 L-216.69 851.95 L136.09 648.77 L134.53 78.68 L-0.92 1.37" stroke="none" stroke-width="0" fill="black" fill-rule="evenodd"></path><path d="M0 0 C0.07 211.41, -0.23 423.36, 0 563.96 M0 0 C1.41 137.45, 1.78 273.91, 0 563.96 M0 563.96 C-79.46 607.48, -163.77 653.77, -216.91 683.26 M0 563.96 C-68.21 600.23, -138.14 638.48, -216.91 683.26 M-216.91 683.26 C-215.23 720.33, -218.62 755.25, -216.91 851.36 M-216.91 683.26 C-215.84 721.18, -214.63 759.28, -216.91 851.36 M-216.91 851.36 C-110.48 790.1, -1.21 728, 135.57 648.01 M-216.91 851.36 C-146.63 811.1, -75.35 769.76, 135.57 648.01 M135.57 648.01 C133.51 482.69, 133.59 315.83, 135.57 78.63 M135.57 648.01 C135.93 489.71, 136.03 331.14, 135.57 78.63 M135.57 78.63 C92.93 53.9, 48.87 27.62, 0 0 M135.57 78.63 C85.79 51.56, 35.2 21.48, 0 0 M0 0 C0 0, 0 0, 0 0 M0 0 C0 0, 0 0, 0 0" stroke="#000000" stroke-width="1" fill="none"></path></g></g><mask></mask><g stroke-linecap="round"><g transform="translate(365.211826164576 12.464857005156887) rotate(0 -177.45419399989055 425.6792268373516)" fill-rule="evenodd"><path d="M-1.78 -0.27 L-356.24 201.37 L-354.96 773.32 L-216.38 852.12 L-217.95 287.45 L-0.92 169.48 L-1.3 0.25" stroke="none" stroke-width="0" fill="black" fill-rule="evenodd"></path><path d="M0 0 C-131.74 75.42, -261.86 150.03, -355.18 203.35 M0 0 C-108.29 63.33, -216.66 126.28, -355.18 203.35 M-355.18 203.35 C-353.32 321.48, -352.79 438.79, -355.18 772.73 M-355.18 203.35 C-355.24 335.2, -355.2 467.22, -355.18 772.73 M-355.18 772.73 C-312.58 797.84, -268.46 822.86, -216.91 851.36 M-355.18 772.73 C-309.84 798.44, -266.26 823.42, -216.91 851.36 M-216.91 851.36 C-214.79 686.85, -215.91 521.42, -216.91 287.4 M-216.91 851.36 C-215.96 695.57, -215.68 539.69, -216.91 287.4 M-216.91 287.4 C-171.02 260.45, -126.14 235.48, 0 168.1 M-216.91 287.4 C-165.73 258.76, -115.06 231.06, 0 168.1 M0 168.1 C-1.09 123.62, 1.06 81.53, 0 0 M0 168.1 C-1.06 101.75, -0.91 36.61, 0 0 M0 0 C0 0, 0 0, 0 0 M0 0 C0 0, 0 0, 0 0" stroke="#000000" stroke-width="1" fill="none"></path></g></g><mask></mask></svg>